<svg id="Layer_1" data-name="Layer 1" xmlns="http://www.w3.org/2000/svg" viewBox="0 0 269.42 87.47"><defs><style>.cls-1{fill:#6b6c6c;}.cls-2{fill:#fecf0a;}</style></defs><title>holidays-logo</title><path class="cls-1" d="M9.34,76.83a1.28,1.28,0,1,1,2.54,0v3.46a3.68,3.68,0,0,1,2.42-.88c2.74,0,4.1,2.56,4.1,5s-1.63,4.79-4.19,4.79a2.77,2.77,0,0,1-2.33-1.17,1.22,1.22,0,0,1-1.27,1.06,1.28,1.28,0,0,1-1.27-1.41V76.83ZM13.88,86.9c1.33,0,2-1.38,2-2.56s-0.65-2.6-2-2.6-2,1.27-2,2.51S12.48,86.9,13.88,86.9Z" transform="translate(-9.34 -6.35)"/><path class="cls-1" d="M19.55,81.26a1.79,1.79,0,0,1-.12-0.65,1.22,1.22,0,0,1,1.2-1.1,1.29,1.29,0,0,1,1.27.9l1.75,4.79,1.87-4.79a1.29,1.29,0,0,1,1.27-.9,1.22,1.22,0,0,1,1.2,1.1,1.49,1.49,0,0,1-.12.65l-4.26,10.6a1.37,1.37,0,0,1-1.2,1,1.18,1.18,0,0,1-1.33-1.1A2.15,2.15,0,0,1,21.25,91l1.11-2.76Z" transform="translate(-9.34 -6.35)"/><path class="cls-2" d="M11.45,12.07c0-3.43,2.14-5.72,5.15-5.72s5.15,2.29,5.15,5.72v14h0.14C24,23.44,28,22.51,31.25,22.51c8.08,0,14.08,5.15,14.08,13.87V56.1c0,3.43-2.14,5.72-5.15,5.72S35,59.53,35,56.1V38.16c0-4.79-3-7.08-6.72-7.08-4.22,0-6.58,3.07-6.58,7.08V56.1c0,3.43-2.14,5.72-5.15,5.72s-5.15-2.29-5.15-5.72v-44Z" transform="translate(-9.34 -6.35)"/><path class="cls-2" d="M88,42.45c0,10.72-7.36,19.8-18.44,19.8s-18.44-9.08-18.44-19.8c0-10.43,7.58-19.94,18.44-19.94S88,32,88,42.45Zm-26.59,0c0,4.93,2.57,10.36,8.15,10.36s8.15-5.43,8.15-10.36-2.5-10.51-8.15-10.51S61.41,37.52,61.41,42.45Z" transform="translate(-9.34 -6.35)"/><path class="cls-2" d="M93.65,12.07c0-3.43,2.14-5.72,5.15-5.72s5.15,2.29,5.15,5.72v44c0,3.43-2.14,5.72-5.15,5.72s-5.15-2.29-5.15-5.72v-44Z" transform="translate(-9.34 -6.35)"/><path class="cls-2" d="M123.31,13.14a5.89,5.89,0,0,1-5.79,5.93,6,6,0,0,1-5.79-5.93A5.79,5.79,0,0,1,123.31,13.14ZM112.37,28.65c0-3.43,2.14-5.72,5.15-5.72s5.15,2.29,5.15,5.72V56.1c0,3.43-2.14,5.72-5.15,5.72s-5.15-2.29-5.15-5.72V28.65Z" transform="translate(-9.34 -6.35)"/><path class="cls-2" d="M165,56.1c0,3.43-2.14,5.72-5.15,5.72s-4.5-1.57-5.15-4.29c-1.93,3.14-5.93,4.72-9.43,4.72-10.36,0-16.94-9.65-16.94-19.37,0-10,5.5-20.37,16.58-20.37a14.9,14.9,0,0,1,9.79,3.57v-14c0-3.43,2.14-5.72,5.15-5.72S165,8.64,165,12.07v44ZM146.61,31.94c-5.36,0-8,5.65-8,10.51s2.64,10.36,8,10.36c5.65,0,8.08-5.72,8.08-10.72S152.11,31.94,146.61,31.94Z" transform="translate(-9.34 -6.35)"/><path class="cls-2" d="M207.43,55.1c0,2.64,0,6.72-4.93,6.72-3,0-4.22-1.64-4.93-4.36a12.31,12.31,0,0,1-9.79,4.79c-9.65,0-17-8.22-17-19.8,0-11.29,7.58-19.94,17-19.94a11.76,11.76,0,0,1,9.79,4.72,4.89,4.89,0,0,1,4.93-4.29c4.93,0,4.93,4.07,4.93,6.72V55.1ZM189.2,52.81c5.36,0,7.93-5.43,7.93-10.36s-2.5-10.51-7.93-10.51c-5.65,0-8.15,5.57-8.15,10.51S183.63,52.81,189.2,52.81Z" transform="translate(-9.34 -6.35)"/><path class="cls-2" d="M213.57,30a7.26,7.26,0,0,1-.5-2.64c0-2.57,2.72-4.43,4.86-4.43a5.23,5.23,0,0,1,5.15,3.64l7.08,19.37,7.58-19.37a5.23,5.23,0,0,1,5.15-3.64c2.14,0,4.86,1.86,4.86,4.43a6,6,0,0,1-.5,2.64L230,72.89C229.15,75,227.58,77,225.15,77c-3.5,0-5.36-2.22-5.36-4.43a8.69,8.69,0,0,1,.64-3l4.5-11.15Z" transform="translate(-9.34 -6.35)"/><path class="cls-2" d="M273.61,34.51c-1.93,0-5.86-3-9.22-3-1.86,0-3.5.86-3.5,2.86,0,4.79,17.87,4.07,17.87,15.79,0,6.86-5.79,12.08-14.65,12.08-5.79,0-14.37-3.29-14.37-7.93,0-1.57,1.57-4.57,4.43-4.57,4,0,5.79,3.5,10.65,3.5,3.15,0,4.07-1,4.07-2.93,0-4.72-17.87-4-17.87-15.8,0-7.15,5.79-12,13.94-12,5.07,0,12.87,2.36,12.87,7.43A4.45,4.45,0,0,1,273.61,34.51Z" transform="translate(-9.34 -6.35)"/><path class="cls-1" d="M95.5,77.38a2.14,2.14,0,0,1,2.15-2.23,2.31,2.31,0,0,1,2.15,1.38,4.33,4.33,0,0,1,3.69-1.65,5.16,5.16,0,0,1,4,1.76,6.74,6.74,0,0,1,4.16-1.76c3,0,5.34,1.54,5.34,5.07v8a2.15,2.15,0,1,1-4.3,0v-6.8c0-1.35-.74-2.59-2.15-2.59s-2.15,1.24-2.15,2.59v6.8a2.15,2.15,0,1,1-4.29,0v-6.8c0-1.35-.74-2.59-2.15-2.59s-2.15,1.24-2.15,2.59v6.8a2.15,2.15,0,1,1-4.29,0V77.38Z" transform="translate(-9.34 -6.35)"/><path class="cls-1" d="M135,79.85a2,2,0,0,0-.68,0,7.13,7.13,0,0,0-13.58,0,1.84,1.84,0,0,0-.7,0,2.18,2.18,0,0,0-1.71,2.58l0.8,2.37a1.93,1.93,0,0,0,2,1.54,7.15,7.15,0,0,0,12.88,0,1.93,1.93,0,0,0,2-1.54l0.8-2.37A2.19,2.19,0,0,0,135,79.85ZM127.54,88c-2.33,0-4.26-1.3-4.69-3a2.7,2.7,0,0,1,0-1.42,3.08,3.08,0,0,1,.48-1.1,5.37,5.37,0,0,1,0-.7c0-2.94,2.29-4.42,4.27-2.66,1.92-1.73,4.26-.28,4.26,2.66a5.37,5.37,0,0,1,0,.7,3.11,3.11,0,0,1,.47,1,2.52,2.52,0,0,1,.1.73,2.88,2.88,0,0,1-.11.78C131.77,86.73,129.84,88,127.54,88Z" transform="translate(-9.34 -6.35)"/><path class="cls-1" d="M137.93,77.38a2.14,2.14,0,0,1,2.15-2.23,2.31,2.31,0,0,1,2.15,1.38c0.69-1.07,1.84-1.65,3.69-1.65,3,0,5.34,1.54,5.34,5.07v8a2.15,2.15,0,1,1-4.29,0v-6.8a2.38,2.38,0,1,0-4.74,0v6.8a2.15,2.15,0,1,1-4.29,0V77.38Z" transform="translate(-9.34 -6.35)"/><path class="cls-1" d="M153.82,71a2.15,2.15,0,1,1,4.29,0v9.14l3.5-3.5c0.74-.74,1.38-1.49,2.42-1.49a2,2,0,0,1,2.09,2c0,0.77-.5,1.27-1.51,2.26l-2.31,2.29,3.61,4.57a3.7,3.7,0,0,1,1,1.9,2,2,0,0,1-2.12,2c-1,0-1.43-.3-2.34-1.46L158.17,83h-0.06v4.85a2.15,2.15,0,1,1-4.29,0V71Z" transform="translate(-9.34 -6.35)"/><path class="cls-1" d="M172.07,84c0,0.91.69,2.4,3.44,2.4,2.12,0,3.41-1.35,4.41-1.35a1.78,1.78,0,0,1,1.79,1.84c0,2.09-3.5,3.47-6.75,3.47-4.63,0-7.52-3.44-7.52-7.76A7.58,7.58,0,0,1,175,74.87a7.06,7.06,0,0,1,7,7.3c0,1.51-.72,1.87-2.09,1.87h-7.76Zm5.56-2.95a2.79,2.79,0,0,0-5.56,0h5.56Z" transform="translate(-9.34 -6.35)"/><path class="cls-1" d="M187.35,88.55l-3.66-8.73a10,10,0,0,1-.91-2.67,2,2,0,0,1,2.09-2,2.24,2.24,0,0,1,2.2,1.62l2.53,6.55,2.4-5.84c0.55-1.32,1.16-2.34,2.34-2.34a2.06,2.06,0,0,1,2.2,2.18,5.09,5.09,0,0,1-.52,1.87l-5.4,12.59c-0.5,1.13-.85,2-2.34,2a2,2,0,0,1-2.12-1.93,5.56,5.56,0,0,1,.72-2.37Z" transform="translate(-9.34 -6.35)"/><path class="cls-1" d="M199.14,85.36c1.35,0,2.29,1.24,4.13,1.24,0.88,0,1.21-.41,1.21-0.85,0-.88-0.94-1-3.33-2-2.2-.91-3.39-1.73-3.39-4s2.09-4.87,5.53-4.87c1.73,0,5,.83,5,3.06a1.74,1.74,0,0,1-1.79,1.82c-0.85,0-2.12-1.07-3.44-1.07a1,1,0,0,0-1.13.91c0,1.68,6.72,1.29,6.72,6,0,3-2.56,4.82-5.51,4.82-2.7,0-5.73-1.07-5.73-3A1.89,1.89,0,0,1,199.14,85.36Z" transform="translate(-9.34 -6.35)"/><path class="cls-1" d="M122.85,85a2.7,2.7,0,0,1,0-1.42l0,0.49A1.94,1.94,0,0,1,122.85,85Z" transform="translate(-9.34 -6.35)"/><path class="cls-1" d="M132.33,84.23a2.88,2.88,0,0,1-.11.78,2,2,0,0,1,0-1l0.06-.54A2.52,2.52,0,0,1,132.33,84.23Z" transform="translate(-9.34 -6.35)"/><path class="cls-1" d="M35.38,71.12a2,2,0,1,1,3.91,0V87.85a2,2,0,1,1-3.91,0V71.12Z" transform="translate(-9.34 -6.35)"/><path class="cls-1" d="M47.2,71.53A2.24,2.24,0,0,1,45,73.78a2.29,2.29,0,0,1-2.2-2.25A2.2,2.2,0,0,1,47.2,71.53ZM43,77.42a2,2,0,1,1,3.91,0V87.85a2,2,0,1,1-3.91,0V77.42Z" transform="translate(-9.34 -6.35)"/><path class="cls-1" d="M51.71,78.84H50.84a1.58,1.58,0,0,1-1.71-1.71,1.67,1.67,0,0,1,1.71-1.71h0.87V73.08a2,2,0,1,1,3.91,0v2.34h1.11a1.72,1.72,0,1,1,0,3.42H55.62v9a2,2,0,1,1-3.91,0v-9Z" transform="translate(-9.34 -6.35)"/><path class="cls-1" d="M61.92,78.84H61a1.58,1.58,0,0,1-1.71-1.71A1.67,1.67,0,0,1,61,75.41h0.87V73.08a2,2,0,1,1,3.91,0v2.34h1.11a1.72,1.72,0,1,1,0,3.42H65.83v9a2,2,0,1,1-3.91,0v-9Z" transform="translate(-9.34 -6.35)"/><path class="cls-1" d="M70.58,71.12a2,2,0,1,1,3.91,0V87.85a2,2,0,1,1-3.91,0V71.12Z" transform="translate(-9.34 -6.35)"/><path class="cls-1" d="M79.82,83.94c0.27,1.93,1.87,2.82,3.69,2.82,2,0,3.39-1.58,4.43-1.58a1.74,1.74,0,0,1,1.6,1.68c0,1.68-3.48,3.31-6.38,3.31-4.4,0-7.33-3.2-7.33-7.52,0-4,2.88-7.58,7-7.58a7.27,7.27,0,0,1,7,7.12,1.5,1.5,0,0,1-1.71,1.74H79.82ZM86,81.34a3.1,3.1,0,0,0-3.12-3,3.15,3.15,0,0,0-3.1,3H86Z" transform="translate(-9.34 -6.35)"/></svg>